<?xml version="1.0" encoding="UTF-8"?>
<svg width="224px" height="67px" viewBox="0 0 224 67" version="1.1" xmlns="http://www.w3.org/2000/svg" xmlns:xlink="http://www.w3.org/1999/xlink">
    <!-- Generator: Sketch 56.3 (81716) - https://sketch.com -->
    <title>Group 2</title>
    <desc>Created with Sketch.</desc>
    <defs>
        <filter x="-11.5%" y="-45.1%" width="122.5%" height="190.2%" filterUnits="objectBoundingBox" id="filter-1">
            <feOffset dx="0" dy="4" in="SourceAlpha" result="shadowOffsetOuter1"></feOffset>
            <feGaussianBlur stdDeviation="4" in="shadowOffsetOuter1" result="shadowBlurOuter1"></feGaussianBlur>
            <feColorMatrix values="0 0 0 0 0.0644248188   0 0 0 0 0.0605541738   0 0 0 0 0.0605541738  0 0 0 0.5 0" type="matrix" in="shadowBlurOuter1" result="shadowMatrixOuter1"></feColorMatrix>
            <feMerge>
                <feMergeNode in="shadowMatrixOuter1"></feMergeNode>
                <feMergeNode in="SourceGraphic"></feMergeNode>
            </feMerge>
        </filter>
    </defs>
    <g id="Page-1" stroke="none" stroke-width="1" fill="none" fill-rule="evenodd">
        <g id="Group-2" filter="url(#filter-1)" transform="translate(8.000000, 4.000000)" fill="#FFFFFF" stroke="#FFFFFF">
            <path d="M208.5,50.5 L0,50.5" id="Line" stroke-linecap="square"></path>
            <path d="M26.3289902,21.0096487 C26.3289902,23.1195058 25.6827382,24.6740013 24.3902147,25.6731816 C23.0976912,26.6723619 21.0873632,27.1719446 18.3591704,27.1719446 L16.3635578,27.1719446 L16.3635578,30.9413657 L19.0285847,30.9413657 L19.0285847,34.2347848 L9,34.2347848 L9,30.9413657 L11.3997873,30.9413657 L11.3997873,18.1407719 L9,18.1407719 L9,14.8473528 L18.2581267,14.8473528 C20.9778992,14.8473528 23.0029626,15.3512237 24.3333777,16.3589807 C25.6637927,17.3667377 26.3289902,18.9169448 26.3289902,21.0096487 Z M21.0999801,21.0096487 C21.0999801,20.2034431 20.9399958,19.5880773 20.6200226,19.1635329 C20.3000494,18.7389885 19.8390422,18.4623955 19.2369873,18.3337457 C18.6349324,18.2050958 17.938159,18.1407719 17.1466463,18.1407719 L16.3635578,18.1407719 L16.3635578,23.955715 L17.1466463,23.955715 C18.1991898,23.955715 19.0138463,23.8463643 19.5906402,23.6276596 C20.167434,23.4089549 20.5631845,23.0894793 20.7779033,22.6692232 C20.9926222,22.2489671 21.0999801,21.6957811 21.0999801,21.0096487 Z M35.6123779,31.1214745 L35.6123779,34.2347848 L27.4152097,34.2347848 L27.4152097,31.1214745 L29.4866051,31.1214745 L29.4866051,17.9477981 L27.4152097,17.9477981 L27.4152097,14.8473528 L33.7304394,14.8473528 L33.7304394,31.1214745 L35.6123779,31.1214745 Z M49.1143389,26.1170213 L49.1143389,31.1214745 L51.261517,31.1214745 L51.261517,34.2347848 L44.8957655,34.2347848 L44.8957655,33.1798615 C43.6916557,34.0203737 42.4875639,34.4406235 41.2834541,34.4406235 C39.8267338,34.4406235 38.6605331,34.058968 37.7848169,33.2956457 C36.9091006,32.5323234 36.4712491,31.5031402 36.4712491,30.2080653 C36.4712491,28.8358005 36.961727,27.735861 37.9426976,26.9082138 C38.9236682,26.0805665 40.2266975,25.6667491 41.8518248,25.6667491 C42.4159881,25.6667491 42.9190964,25.728929 43.3611647,25.8532905 C43.8032329,25.9776519 44.3147614,26.189921 44.8957655,26.4901039 L44.8957655,25.4094508 C44.8957655,24.7233184 44.6852599,24.1744207 44.2642425,23.7627412 C43.8432251,23.3510618 43.2117084,23.1452251 42.3696736,23.1452251 C41.4518556,23.1452251 40.6393042,23.5054392 39.9319949,24.2258783 L36.5217709,23.5954973 C37.5574738,21.4684868 39.6962102,20.4049975 42.9380443,20.4049975 C45.1610162,20.4049975 46.746123,20.8702741 47.6934122,21.8008412 C48.6407014,22.7314082 49.1143389,24.1701206 49.1143389,26.1170213 Z M42.2307385,31.7518555 C42.9885699,31.7518555 43.8769033,31.2887231 44.8957655,30.3624443 L44.8957655,29.153142 C43.9863679,28.5527762 43.1527659,28.2525977 42.3949345,28.2525977 C41.7886694,28.2525977 41.3255572,28.3983987 41.005584,28.6900049 C40.6856108,28.9816112 40.5256265,29.3975728 40.5256265,29.937902 C40.5256265,31.1472104 41.0939915,31.7518555 42.2307385,31.7518555 Z M58.6124443,23.8785255 L60.8354052,29.9121722 L63.1846706,23.8785255 L61.4542977,23.8785255 L61.4542977,20.7137556 L68.4389417,20.7137556 L68.4389417,23.8785255 L66.5191119,23.8785255 L60.1912517,40.3198911 L55.5558732,40.3198911 L55.5558732,37.2065809 L58.0945955,37.2065809 L58.9660972,34.8137061 L54.1538922,23.8785255 L52.2214319,23.8785255 L52.2214319,20.7137556 L60.1912517,20.7137556 L60.1912517,23.8785255 L58.6124443,23.8785255 Z M76.3077179,16.867145 C76.3077179,17.5532774 76.0782668,18.1214723 75.6193578,18.5717467 C75.1604489,19.0220211 74.6152395,19.2471549 73.9837134,19.2471549 C73.3437669,19.2471549 72.7943474,19.0134445 72.3354384,18.5460168 C71.8765294,18.0785891 71.6470784,17.5189675 71.6470784,16.867145 C71.6470784,16.2238958 71.8765294,15.6685658 72.3354384,15.2011381 C72.7943474,14.7337103 73.3437669,14.5 73.9837134,14.5 C74.6152395,14.5 75.1604489,14.7337103 75.6193578,15.2011381 C76.0782668,15.6685658 76.3077179,16.2238958 76.3077179,16.867145 Z M78.0128299,31.1214745 L78.0128299,34.2347848 L69.8156618,34.2347848 L69.8156618,31.1214745 L71.8365353,31.1214745 L71.8365353,23.8785255 L69.8156618,23.8785255 L69.8156618,20.7137556 L76.0424782,20.7137556 L76.0424782,31.1214745 L78.0128299,31.1214745 Z M93.7377518,25.6152895 L93.7377518,31.1214745 L95.7333644,31.1214745 L95.7333644,34.2347848 L89.4939174,34.2347848 L89.4939174,25.9626423 C89.4939174,25.3279698 89.3991899,24.8669815 89.2097321,24.5796635 C89.0202743,24.2923456 88.7024109,24.1486888 88.2561324,24.1486888 C87.447779,24.1486888 86.6352276,24.4445789 85.8184538,25.0363681 L85.8184538,31.1214745 L87.8898491,31.1214745 L87.8898491,34.2347848 L79.5916373,34.2347848 L79.5916373,31.1214745 L81.6125108,31.1214745 L81.6125108,23.8785255 L79.5916373,23.8785255 L79.5916373,20.7137556 L85.8184538,20.7137556 L85.8184538,21.9873825 C87.081506,21.0182205 88.3782202,20.5336467 89.7086352,20.5336467 C91.0306299,20.5336467 92.0326364,20.9603289 92.7146846,21.8137061 C93.3967328,22.6670833 93.7377518,23.9342651 93.7377518,25.6152895 Z M106.494516,22.37333 L106.494516,20.7137556 L112.898159,20.7137556 L112.898159,23.8785255 L110.700459,23.8785255 L110.700459,33.9774864 C110.700459,36.0959202 110.132094,37.7125954 108.995347,38.8275606 C107.8586,39.9425258 106.107193,40.5 103.741076,40.5 C101.122347,40.5 99.1688557,40.011138 97.8805424,39.0333993 L99.9393073,36.1902524 C101.025532,36.8678081 102.0949,37.2065809 103.147444,37.2065809 C104.031581,37.2065809 104.715724,37.0715006 105.199894,36.801336 C105.684064,36.5311713 106.020873,36.1152098 106.21033,35.5534389 C106.399788,34.991668 106.494516,34.2347895 106.494516,33.2827808 L106.494516,32.5494805 C105.096738,33.8102488 103.741082,34.4406235 102.427508,34.4406235 C101.341283,34.4406235 100.379273,34.1468774 99.5414478,33.5593765 C98.7036232,32.9718757 98.0573711,32.1506733 97.6026723,31.0957447 C97.1479735,30.0408161 96.9206275,28.8315259 96.9206275,27.4678377 C96.9206275,26.1298795 97.1627089,24.9334541 97.6468789,23.8785255 C98.131049,22.8235969 98.815192,22.0023945 99.6993286,21.4148936 C100.583465,20.8273927 101.568631,20.5336467 102.654856,20.5336467 C104.229461,20.5336467 105.509335,21.1468684 106.494516,22.37333 Z M103.85475,30.9413657 C104.629422,30.9413657 105.267254,30.6390431 105.768264,30.0343889 C106.269275,29.4297347 106.519777,28.5913793 106.519777,27.5192974 C106.519777,26.4300622 106.281905,25.5724095 105.806156,24.9463137 C105.330406,24.3202179 104.679944,24.0071747 103.85475,24.0071747 C103.054817,24.0071747 102.4233,24.3287944 101.960181,24.9720435 C101.497062,25.6152927 101.265506,26.4557923 101.265506,27.4935675 C101.265506,28.4884595 101.497062,29.3118061 101.960181,29.9636319 C102.4233,30.6154577 103.054817,30.9413657 103.85475,30.9413657 Z M128.294689,18.1407719 L128.294689,22.3476002 L133.498438,22.3476002 L133.498438,18.1407719 L131.553347,18.1407719 L131.553347,14.8473528 L140.685169,14.8473528 L140.685169,18.1407719 L138.310643,18.1407719 L138.310643,30.9413657 L140.685169,30.9413657 L140.685169,34.2347848 L131.553347,34.2347848 L131.553347,30.9413657 L133.498438,30.9413657 L133.498438,25.6667491 L128.294689,25.6667491 L128.294689,30.9413657 L130.290301,30.9413657 L130.290301,34.2347848 L121.107957,34.2347848 L121.107957,30.9413657 L123.482484,30.9413657 L123.482484,18.1407719 L121.107957,18.1407719 L121.107957,14.8473528 L130.290301,14.8473528 L130.290301,18.1407719 L128.294689,18.1407719 Z M155.904873,27.4678377 C155.904873,28.8143726 155.593324,30.0279511 154.970219,31.1086096 C154.347113,32.1892681 153.505091,33.034056 152.444127,33.6429985 C151.383163,34.251941 150.216962,34.5564077 148.94549,34.5564077 C147.598234,34.5564077 146.394142,34.251941 145.333178,33.6429985 C144.272214,33.034056 143.444928,32.1892681 142.851293,31.1086096 C142.257658,30.0279511 141.960846,28.8143726 141.960846,27.4678377 C141.960846,26.1298795 142.266079,24.9248775 142.876554,23.8527956 C143.487029,22.7807138 144.326946,21.93807 145.396331,21.3248392 C146.465715,20.7116083 147.648756,20.4049975 148.94549,20.4049975 C150.267484,20.4049975 151.458946,20.7116083 152.51991,21.3248392 C153.580873,21.93807 154.410265,22.7807138 155.00811,23.8527956 C155.605955,24.9248775 155.904873,26.1298795 155.904873,27.4678377 Z M148.920229,31.198664 C149.745423,31.198664 150.391675,30.8706119 150.859004,30.2144978 C151.326334,29.5583837 151.559995,28.6171099 151.559995,27.3906482 C151.559995,26.2413764 151.326334,25.3429853 150.859004,24.6954478 C150.391675,24.0479103 149.737003,23.7241465 148.894968,23.7241465 C148.044513,23.7241465 147.400366,24.0436221 146.962507,24.6825829 C146.524649,25.3215437 146.305724,26.2842588 146.305724,27.5707571 C146.305724,28.6599923 146.543595,29.5369421 147.019345,30.2016329 C147.495094,30.8663236 148.128716,31.198664 148.920229,31.198664 Z M171.756099,22.37333 C173.482271,21.1468684 175.267358,20.5336467 177.111414,20.5336467 C178.197639,20.5336467 179.064922,20.7051772 179.713289,21.0482434 C180.361655,21.3913096 180.837398,21.9487839 181.14053,22.7206828 C181.443663,23.4925818 181.595227,24.5303415 181.595227,25.8339931 L181.595227,31.1214745 L183.792927,31.1214745 L183.792927,34.2347848 L177.351393,34.2347848 L177.351393,26.2456705 C177.351393,24.8991356 176.753557,24.2258783 175.557867,24.2258783 C174.698992,24.2258783 173.684355,24.5217684 172.513927,25.1135576 L172.513927,31.1214745 L174.686366,31.1214745 L174.686366,34.2347848 L168.270092,34.2347848 L168.270092,26.3871846 C168.270092,24.9463065 167.693307,24.2258783 166.539719,24.2258783 C165.722946,24.2258783 164.704099,24.5217684 163.483148,25.1135576 L163.483148,31.1214745 L165.655587,31.1214745 L165.655587,34.2347848 L157.066875,34.2347848 L157.066875,31.1214745 L159.239314,31.1214745 L159.239314,23.8785255 L157.066875,23.8785255 L157.066875,20.7137556 L163.483148,20.7137556 L163.483148,21.8458684 C164.880926,20.9710496 166.312364,20.5336467 167.777504,20.5336467 C169.486835,20.5336467 170.81302,21.1468684 171.756099,22.37333 Z M199,28.3812469 L189.09772,28.3812469 C189.198764,29.4190222 189.550308,30.2402246 190.152363,30.8448788 C190.754418,31.449533 191.531184,31.7518555 192.482683,31.7518555 C193.535227,31.7518555 194.562494,31.2201109 195.564515,30.1566056 L198.848434,31.2372588 C198.124285,32.3436473 197.227531,33.1734262 196.158147,33.7266205 C195.088762,34.2798147 193.821519,34.5564077 192.356378,34.5564077 C190.891238,34.5564077 189.596629,34.2755265 188.472512,33.7137556 C187.348396,33.1519847 186.476903,32.3565118 185.858007,31.3273132 C185.239111,30.2981146 184.929668,29.0888244 184.929668,27.6994062 C184.929668,26.3271414 185.251742,25.0835451 185.895898,23.9685799 C186.540055,22.8536147 187.411548,21.9809532 188.510404,21.350569 C189.609259,20.7201849 190.802825,20.4049975 192.091139,20.4049975 C193.488917,20.4049975 194.705639,20.7330497 195.741341,21.3891638 C196.777044,22.0452779 197.57486,22.975831 198.134814,24.1808511 C198.694767,25.3858711 198.983159,26.7859891 199,28.3812469 Z M191.889051,23.2738743 C191.13122,23.2738743 190.522859,23.496864 190.06395,23.9428501 C189.605041,24.3888361 189.316648,25.07067 189.198764,25.9883721 L194.730905,25.9883721 C194.61302,25.1821665 194.290946,24.5282064 193.764675,24.026472 C193.238403,23.5247377 192.613201,23.2738743 191.889051,23.2738743 Z" id="PlayingHome" stroke-width="0.539999977" fill-rule="nonzero"></path>
            <path d="M208.5,0.5 L0,0.5" id="Line" stroke-linecap="square"></path>
        </g>
    </g>
</svg>